<svg xmlns="http://www.w3.org/2000/svg" xmlns:xlink="http://www.w3.org/1999/xlink" width="500" zoomAndPan="magnify" viewBox="0 0 375 374.999991" height="500" preserveAspectRatio="xMidYMid meet" version="1.0"><defs><g/><clipPath id="54659ec5de"><path d="M 0 0.238281 L 375 0.238281 L 375 290.878906 L 0 290.878906 Z M 0 0.238281 " clip-rule="nonzero"/></clipPath><clipPath id="ce59edf752"><path d="M 0 22 L 92 22 L 92 220 L 0 220 Z M 0 22 " clip-rule="nonzero"/></clipPath><clipPath id="dff494afa0"><path d="M 279 22 L 375 22 L 375 220 L 279 220 Z M 279 22 " clip-rule="nonzero"/></clipPath><clipPath id="cff0fa07cc"><rect x="0" width="375" y="0" height="291"/></clipPath><clipPath id="2ee8d76365"><rect x="0" width="136" y="0" height="94"/></clipPath><clipPath id="b51b75dc61"><rect x="0" width="375" y="0" height="291"/></clipPath></defs><g transform="matrix(1, 0, 0, 1, 0, 54)"><g clip-path="url(#b51b75dc61)"><g clip-path="url(#54659ec5de)"><g transform="matrix(1, 0, 0, 1, 0, 0)"><g clip-path="url(#cff0fa07cc)"><g clip-path="url(#ce59edf752)"><g fill="#ffffff" fill-opacity="1"><g transform="translate(-0.0143383, 210.683248)"><g><path d="M -5.023438 0 L -5.023438 -188.253906 L 42.570312 -188.253906 C 58.125 -188.253906 70.121094 -184.46875 78.558594 -176.902344 C 87.261719 -169.097656 91.613281 -157.941406 91.613281 -143.4375 L 91.613281 -36.488281 C 91.613281 -22.003906 87.296875 -10.839844 78.664062 -2.992188 C 70.265625 4.644531 58.277344 8.460938 42.699219 8.460938 L -5.023438 8.460938 Z M 11.898438 0 L 3.4375 0 L 3.4375 -8.460938 L 42.699219 -8.460938 C 53.917969 -8.460938 62.109375 -10.8125 67.28125 -15.515625 C 72.222656 -20.003906 74.691406 -26.996094 74.691406 -36.488281 L 74.691406 -143.4375 C 74.691406 -152.90625 72.214844 -159.859375 67.257812 -164.304688 C 62.035156 -168.988281 53.804688 -171.332031 42.570312 -171.332031 L 3.4375 -171.332031 L 3.4375 -179.792969 L 11.898438 -179.792969 Z M 38.734375 -37.414062 L 42.039062 -37.414062 C 41.664062 -37.414062 41.203125 -37.289062 40.660156 -37.042969 C 39.539062 -36.539062 38.667969 -35.734375 38.046875 -34.636719 C 37.863281 -34.3125 37.734375 -34.019531 37.65625 -33.757812 L 37.648438 -33.730469 C 37.660156 -33.78125 37.671875 -33.847656 37.683594 -33.925781 C 37.765625 -34.5 37.808594 -35.3125 37.808594 -36.355469 L 37.808594 -143.171875 C 37.808594 -144.273438 37.765625 -145.136719 37.675781 -145.757812 C 37.65625 -145.894531 37.644531 -145.980469 37.636719 -146.007812 C 37.699219 -145.78125 37.8125 -145.519531 37.972656 -145.222656 C 38.566406 -144.125 39.421875 -143.3125 40.535156 -142.789062 C 41.113281 -142.515625 41.617188 -142.378906 42.039062 -142.378906 L 38.734375 -142.378906 L 38.734375 -150.839844 L 47.195312 -150.839844 L 47.195312 -28.953125 L 38.734375 -28.953125 Z M 30.273438 -20.492188 L 30.273438 -159.300781 L 42.039062 -159.300781 C 44.136719 -159.300781 46.039062 -158.902344 47.742188 -158.097656 C 49.980469 -157.046875 51.683594 -155.441406 52.851562 -153.285156 C 54.105469 -150.96875 54.730469 -147.597656 54.730469 -143.171875 L 54.730469 -36.355469 C 54.730469 -31.960938 54.078125 -28.613281 52.777344 -26.308594 C 51.582031 -24.195312 49.863281 -22.632812 47.617188 -21.617188 C 45.949219 -20.867188 44.089844 -20.492188 42.039062 -20.492188 Z M 30.273438 -20.492188 "/></g></g></g></g><g fill="#ffffff" fill-opacity="1"><g transform="translate(105.00048, 210.683248)"><g><path d="M 42.699219 11.5 C 27.820312 11.5 16.3125 8.539062 8.171875 2.609375 C 3.664062 -0.675781 0.269531 -4.777344 -2.007812 -9.695312 C -4.195312 -14.417969 -5.289062 -19.777344 -5.289062 -25.777344 L -5.289062 -188.253906 L 47.59375 -188.253906 L 47.59375 -29.878906 C 47.59375 -29.535156 47.605469 -29.304688 47.632812 -29.183594 C 47.566406 -29.488281 47.402344 -29.835938 47.148438 -30.230469 C 46.636719 -31.015625 45.941406 -31.632812 45.070312 -32.078125 C 44.320312 -32.460938 43.574219 -32.652344 42.832031 -32.652344 C 42.089844 -32.652344 41.34375 -32.460938 40.597656 -32.078125 C 39.722656 -31.632812 39.03125 -31.015625 38.519531 -30.230469 C 38.261719 -29.835938 38.101562 -29.488281 38.035156 -29.183594 C 38.058594 -29.304688 38.074219 -29.535156 38.074219 -29.878906 L 38.074219 -188.253906 L 90.6875 -188.253906 L 90.6875 -25.777344 C 90.6875 -19.777344 89.597656 -14.417969 87.410156 -9.695312 C 85.132812 -4.777344 81.738281 -0.675781 77.230469 2.609375 C 69.089844 8.539062 57.582031 11.5 42.699219 11.5 Z M 42.699219 -5.421875 C 53.90625 -5.421875 62.097656 -7.304688 67.265625 -11.070312 C 69.410156 -12.632812 71.007812 -14.546875 72.054688 -16.808594 C 73.195312 -19.273438 73.765625 -22.261719 73.765625 -25.777344 L 73.765625 -179.792969 L 82.226562 -179.792969 L 82.226562 -171.332031 L 46.535156 -171.332031 L 46.535156 -179.792969 L 54.996094 -179.792969 L 54.996094 -29.878906 C 54.996094 -26.308594 54.230469 -23.347656 52.699219 -20.996094 C 51.570312 -19.265625 50.105469 -17.9375 48.308594 -17.015625 C 46.632812 -16.160156 44.808594 -15.730469 42.832031 -15.730469 C 40.855469 -15.730469 39.03125 -16.160156 37.359375 -17.015625 C 35.558594 -17.9375 34.09375 -19.265625 32.964844 -20.996094 C 31.4375 -23.347656 30.671875 -26.308594 30.671875 -29.878906 L 30.671875 -179.792969 L 39.132812 -179.792969 L 39.132812 -171.332031 L 3.171875 -171.332031 L 3.171875 -179.792969 L 11.632812 -179.792969 L 11.632812 -25.777344 C 11.632812 -22.261719 12.203125 -19.273438 13.34375 -16.808594 C 14.394531 -14.546875 15.992188 -12.632812 18.136719 -11.070312 C 23.304688 -7.304688 31.492188 -5.421875 42.699219 -5.421875 Z M 42.699219 -5.421875 "/></g></g></g><g fill="#ffffff" fill-opacity="1"><g transform="translate(209.354304, 210.683248)"><g><path d="M -5.023438 0 L -5.023438 -188.253906 L 48.386719 -188.253906 L 48.386719 -26.175781 L 39.925781 -26.175781 L 39.925781 -34.636719 L 66.496094 -34.636719 L 66.496094 8.460938 L -5.023438 8.460938 Z M 11.898438 0 L 3.4375 0 L 3.4375 -8.460938 L 58.035156 -8.460938 L 58.035156 0 L 49.574219 0 L 49.574219 -26.175781 L 58.035156 -26.175781 L 58.035156 -17.714844 L 31.464844 -17.714844 L 31.464844 -179.792969 L 39.925781 -179.792969 L 39.925781 -171.332031 L 3.4375 -171.332031 L 3.4375 -179.792969 L 11.898438 -179.792969 Z M 11.898438 0 "/></g></g></g><g clip-path="url(#dff494afa0)"><g fill="#ffffff" fill-opacity="1"><g transform="translate(288.457903, 210.683248)"><g><path d="M 38.210938 0.265625 L 37.417969 -25.117188 L 45.875 -25.382812 L 45.875 -16.921875 L 37.941406 -16.921875 L 37.941406 -25.382812 L 46.398438 -25.117188 L 45.347656 8.460938 L -8.859375 8.460938 L 14.425781 -188.253906 L 69.25 -188.253906 L 92.683594 8.460938 L 38.464844 8.460938 Z M 55.125 -0.265625 L 46.667969 0 L 46.667969 -8.460938 L 83.152344 -8.460938 L 83.152344 0 L 74.753906 1 L 53.335938 -178.792969 L 61.738281 -179.792969 L 61.738281 -171.332031 L 21.945312 -171.332031 L 21.945312 -179.792969 L 30.347656 -178.796875 L 9.0625 0.996094 L 0.660156 0 L 0.660156 -8.460938 L 37.148438 -8.460938 L 37.148438 0 L 28.691406 -0.265625 L 29.742188 -33.84375 L 54.074219 -33.84375 Z M 38.601562 -54.335938 L 45.210938 -54.335938 L 45.210938 -45.875 L 36.757812 -45.59375 L 33.980469 -129.40625 L 42.4375 -129.6875 L 42.4375 -121.226562 L 41.113281 -121.226562 L 41.113281 -129.6875 L 49.570312 -129.433594 L 47.058594 -45.621094 L 38.601562 -45.875 Z M 29.882812 -37.414062 L 32.902344 -138.148438 L 50.621094 -138.148438 L 53.957031 -37.414062 Z M 29.882812 -37.414062 "/></g></g></g></g><g fill="#d95029" fill-opacity="1"><g transform="translate(-0.0143383, 210.683248)"><g><path d="M 3.4375 0 L 3.4375 -179.796875 L 42.5625 -179.796875 C 55.957031 -179.796875 66.070312 -176.734375 72.90625 -170.609375 C 79.738281 -164.484375 83.15625 -155.425781 83.15625 -143.4375 L 83.15625 -36.484375 C 83.15625 -24.503906 79.757812 -15.425781 72.96875 -9.25 C 66.1875 -3.082031 56.097656 0 42.703125 0 Z M 38.734375 -28.953125 L 42.046875 -28.953125 C 43.710938 -28.953125 44.832031 -29.457031 45.40625 -30.46875 C 45.976562 -31.488281 46.265625 -33.453125 46.265625 -36.359375 L 46.265625 -143.171875 C 46.265625 -146.171875 45.976562 -148.195312 45.40625 -149.25 C 44.832031 -150.3125 43.710938 -150.84375 42.046875 -150.84375 L 38.734375 -150.84375 Z M 38.734375 -28.953125 "/></g></g></g><g fill="#d95029" fill-opacity="1"><g transform="translate(105.00048, 210.683248)"><g><path d="M 42.703125 3.046875 C 29.660156 3.046875 19.8125 0.625 13.15625 -4.21875 C 6.5 -9.070312 3.171875 -16.257812 3.171875 -25.78125 L 3.171875 -179.796875 L 39.125 -179.796875 L 39.125 -29.875 C 39.125 -26.082031 40.359375 -24.1875 42.828125 -24.1875 C 45.296875 -24.1875 46.53125 -26.082031 46.53125 -29.875 L 46.53125 -179.796875 L 82.234375 -179.796875 L 82.234375 -25.78125 C 82.234375 -16.257812 78.90625 -9.070312 72.25 -4.21875 C 65.59375 0.625 55.742188 3.046875 42.703125 3.046875 Z M 42.703125 3.046875 "/></g></g></g><g fill="#d95029" fill-opacity="1"><g transform="translate(209.354304, 210.683248)"><g><path d="M 3.4375 0 L 3.4375 -179.796875 L 39.921875 -179.796875 L 39.921875 -26.171875 L 58.03125 -26.171875 L 58.03125 0 Z M 3.4375 0 "/></g></g></g><g fill="#d95029" fill-opacity="1"><g transform="translate(288.457903, 210.683248)"><g><path d="M 46.671875 0 L 45.875 -25.390625 L 37.9375 -25.390625 L 37.15625 0 L 0.65625 0 L 21.953125 -179.796875 L 61.734375 -179.796875 L 83.15625 0 Z M 38.609375 -45.875 L 45.21875 -45.875 L 42.4375 -129.6875 L 41.109375 -129.6875 Z M 38.609375 -45.875 "/></g></g></g></g></g></g><g transform="matrix(1, 0, 0, 1, 170, 89)"><g clip-path="url(#2ee8d76365)"><path fill="#ffffff" d="M 11.910156 28.429688 L 108.703125 3.503906 C 114.546875 2 120.507812 5.515625 122.011719 11.363281 L 132.589844 52.449219 C 134.097656 58.292969 130.578125 64.253906 124.734375 65.757812 L 27.941406 90.683594 C 22.097656 92.1875 16.136719 88.667969 14.632812 82.824219 L 4.054688 41.738281 C 2.546875 35.894531 6.066406 29.933594 11.910156 28.429688 Z M 11.910156 28.429688 " fill-opacity="1" fill-rule="nonzero"/><g fill="#d95029" fill-opacity="1"><g transform="translate(22.677958, 77.543002)"><g><path d="M -3.265625 -14.125 L 10.28125 -17.609375 C 10.601562 -16.335938 11.253906 -15.457031 12.234375 -14.96875 C 13.222656 -14.488281 14.703125 -14.5 16.671875 -15 C 18.722656 -15.53125 20.066406 -16.238281 20.703125 -17.125 C 21.347656 -18.007812 21.515625 -19.054688 21.203125 -20.265625 L 19.21875 -27.984375 L -2.875 -22.296875 L -5.59375 -32.875 L 29.984375 -42.046875 L 34.78125 -23.40625 C 35.53125 -20.488281 35.535156 -17.789062 34.796875 -15.3125 C 34.054688 -12.832031 32.445312 -10.644531 29.96875 -8.75 C 27.5 -6.863281 24.03125 -5.347656 19.5625 -4.203125 C 15.03125 -3.035156 11.234375 -2.679688 8.171875 -3.140625 C 5.109375 -3.609375 2.648438 -4.773438 0.796875 -6.640625 C -1.046875 -8.515625 -2.398438 -11.007812 -3.265625 -14.125 Z M -3.265625 -14.125 "/></g></g></g><g fill="#d95029" fill-opacity="1"><g transform="translate(63.199676, 67.108357)"><g><path d="M 39.0625 -16.484375 L 39.578125 -14.46875 C 39.828125 -13.5 40.125 -12.742188 40.46875 -12.203125 C 40.8125 -11.660156 41.328125 -11.195312 42.015625 -10.8125 L 27.640625 -7.125 C 27.046875 -7.476562 26.550781 -7.929688 26.15625 -8.484375 C 25.769531 -9.035156 25.453125 -9.796875 25.203125 -10.765625 L 24.421875 -13.796875 C 24.128906 -14.921875 23.765625 -15.625 23.328125 -15.90625 C 22.898438 -16.1875 22.1875 -16.195312 21.1875 -15.9375 L 12.8125 -13.78125 L 15.34375 -3.953125 L 2.375 -0.609375 L -5.90625 -32.796875 L 17.609375 -38.859375 C 21.453125 -39.847656 24.628906 -40.21875 27.140625 -39.96875 C 29.648438 -39.71875 31.601562 -39 33 -37.8125 C 34.40625 -36.625 35.34375 -35.117188 35.8125 -33.296875 C 36.28125 -31.472656 36.222656 -29.859375 35.640625 -28.453125 C 35.066406 -27.046875 34.175781 -25.84375 32.96875 -24.84375 C 31.769531 -23.851562 30.46875 -23.050781 29.0625 -22.4375 L 29.078125 -22.34375 C 32.015625 -22.789062 34.242188 -22.582031 35.765625 -21.71875 C 37.285156 -20.851562 38.382812 -19.109375 39.0625 -16.484375 Z M 10.703125 -21.984375 L 19.734375 -24.3125 C 21.296875 -24.707031 22.289062 -25.175781 22.71875 -25.71875 C 23.144531 -26.257812 23.265625 -26.894531 23.078125 -27.625 C 22.890625 -28.351562 22.472656 -28.835938 21.828125 -29.078125 C 21.179688 -29.328125 20.082031 -29.25 18.53125 -28.84375 L 9.53125 -26.53125 Z M 10.703125 -21.984375 "/></g></g></g><g fill="#d95029" fill-opacity="1"><g transform="translate(106.190618, 56.037869)"><g><path d="M 13.9375 -9.03125 C 13.46875 -10.832031 12.539062 -12.101562 11.15625 -12.84375 C 9.78125 -13.582031 7.914062 -13.648438 5.5625 -13.046875 C 3.238281 -12.453125 1.648438 -11.492188 0.796875 -10.171875 C -0.046875 -8.859375 -0.234375 -7.300781 0.234375 -5.5 C 0.691406 -3.707031 1.613281 -2.425781 3 -1.65625 C 4.382812 -0.894531 6.238281 -0.8125 8.5625 -1.40625 C 10.914062 -2.007812 12.515625 -2.984375 13.359375 -4.328125 C 14.203125 -5.671875 14.394531 -7.238281 13.9375 -9.03125 Z M 13.9375 -9.03125 "/></g></g></g><g fill="#d95029" fill-opacity="1"><g transform="translate(122.996528, 51.710222)"><g/></g></g></g></g></g></g></svg>